<?xml version="1.0" standalone="no"?>
<!DOCTYPE svg PUBLIC "-//W3C//DTD SVG 1.1//EN" "http://www.w3.org/Graphics/SVG/1.1/DTD/svg11.dtd">
<svg width="100%" height="100%" viewBox="0 0 4602 224" version="1.1" xmlns="http://www.w3.org/2000/svg" xmlns:xlink="http://www.w3.org/1999/xlink" xml:space="preserve" style="fill-rule:evenodd;clip-rule:evenodd;stroke-linejoin:round;stroke-miterlimit:1.41421;">
    <g transform="matrix(4.16667,0,0,4.16667,-41.4169,-151.183)">
        <g>
            <g transform="matrix(1,0,0,1,-44.4722,-175.675)">
                <path d="M396.288,246.231C396.288,248.679 396.492,250.443 396.9,251.523C397.308,252.603 398.16,253.143 399.456,253.143C400.416,253.143 401.16,252.927 401.688,252.495C402.216,252.063 402.6,251.391 402.84,250.479C403.08,249.567 403.224,248.403 403.272,246.987C403.32,245.571 403.344,243.879 403.344,241.911L403.344,229.743C403.344,227.967 403.032,226.599 402.408,225.639C401.784,224.679 400.944,224.199 399.888,224.199C398.448,224.199 397.488,224.835 397.008,226.107C396.528,227.379 396.288,229.311 396.288,231.903L396.288,246.231ZM383.472,239.247C383.472,237.183 383.484,235.215 383.508,233.343C383.532,231.471 383.64,229.707 383.832,228.051C384.024,226.395 384.312,224.835 384.696,223.371C385.08,221.907 385.608,220.527 386.28,219.231C387.528,216.879 389.364,215.079 391.788,213.831C394.212,212.583 397.224,211.959 400.824,211.959C406.248,211.959 410.16,213.591 412.56,216.855C414.96,220.119 416.16,225.255 416.16,232.263L416.16,234.567C416.16,239.799 416.076,244.239 415.908,247.887C415.74,251.535 415.176,254.535 414.216,256.887C413.112,259.623 411.252,261.759 408.636,263.295C406.02,264.831 402.768,265.599 398.88,265.599C395.856,265.599 393.36,265.083 391.392,264.051C389.424,263.019 387.852,261.423 386.676,259.263C385.5,257.103 384.672,254.367 384.192,251.055C383.712,247.743 383.472,243.807 383.472,239.247Z" style="fill:rgb(119,119,118);fill-rule:nonzero;"/>
                <path d="M420.912,219.735C420.912,219.255 420.9,218.739 420.876,218.187C420.852,217.635 420.84,217.023 420.84,216.351C420.84,215.055 421.068,214.155 421.524,213.651C421.98,213.147 422.808,212.895 424.008,212.895C424.344,212.895 424.668,212.907 424.98,212.931C425.292,212.955 425.616,212.967 425.952,212.967C426.288,212.967 426.612,212.955 426.924,212.931C427.236,212.907 427.584,212.895 427.968,212.895L438.12,212.895C438.648,212.895 439.104,212.883 439.488,212.859C439.872,212.835 440.184,212.823 440.424,212.823C441.672,212.823 442.536,213.075 443.016,213.579C443.496,214.083 443.736,215.079 443.736,216.567C443.736,217.095 443.712,217.635 443.664,218.187C443.616,218.739 443.592,219.327 443.592,219.951C443.592,221.055 443.52,221.895 443.376,222.471C443.232,223.047 442.92,223.467 442.44,223.731C441.96,223.995 441.3,224.151 440.46,224.199C439.62,224.247 438.504,224.271 437.112,224.271L435.096,224.271C434.52,224.271 434.052,224.307 433.692,224.379C433.332,224.451 433.068,224.631 432.9,224.919C432.732,225.207 432.612,225.615 432.54,226.143C432.468,226.671 432.432,227.391 432.432,228.303C432.432,229.215 432.456,229.911 432.504,230.391C432.552,230.871 432.696,231.231 432.936,231.471C433.176,231.711 433.572,231.855 434.124,231.903C434.676,231.951 435.456,231.975 436.464,231.975L436.968,231.975C437.784,231.975 438.54,231.927 439.236,231.831C439.932,231.735 440.568,231.687 441.144,231.687C441.96,231.687 442.512,231.939 442.8,232.443C443.088,232.947 443.232,233.751 443.232,234.855C443.232,235.335 443.22,235.803 443.196,236.259C443.172,236.715 443.16,237.183 443.16,237.663L443.16,239.463C443.16,240.951 442.944,242.007 442.512,242.631C442.08,243.255 441.144,243.567 439.704,243.567C439.128,243.567 438.48,243.543 437.76,243.495C437.04,243.447 436.272,243.423 435.456,243.423C434.256,243.423 433.476,243.651 433.116,244.107C432.756,244.563 432.576,245.559 432.576,247.095L432.576,257.535C432.576,258.687 432.612,259.659 432.684,260.451C432.756,261.243 432.792,261.831 432.792,262.215C432.792,263.175 432.576,263.871 432.144,264.303C431.712,264.735 430.992,264.951 429.984,264.951C429.312,264.951 428.616,264.903 427.896,264.807C427.176,264.711 426.408,264.663 425.592,264.663C425.064,264.663 424.56,264.699 424.08,264.771C423.6,264.843 423.096,264.879 422.568,264.879C421.752,264.879 421.26,264.675 421.092,264.267C420.924,263.859 420.84,263.175 420.84,262.215L420.84,260.775C420.84,260.391 420.852,260.007 420.876,259.623C420.9,259.239 420.912,258.855 420.912,258.471L420.912,219.735Z" style="fill:rgb(119,119,118);fill-rule:nonzero;"/>
                <path d="M471.528,212.895C472.392,212.895 473.1,212.931 473.652,213.003C474.204,213.075 474.672,213.279 475.056,213.615C475.392,213.951 475.596,214.503 475.668,215.271C475.74,216.039 475.776,217.071 475.776,218.367L475.776,222.687C475.776,229.599 475.74,235.539 475.668,240.507C475.596,245.475 475.56,249.495 475.56,252.567C475.56,253.671 475.584,254.883 475.632,256.203C475.68,257.523 475.704,258.951 475.704,260.487C475.704,261.495 475.632,262.275 475.488,262.827C475.344,263.379 475.092,263.799 474.732,264.087C474.372,264.375 473.892,264.555 473.292,264.627C472.692,264.699 471.96,264.735 471.096,264.735L468.576,264.735C467.472,264.735 466.62,264.687 466.02,264.591C465.42,264.495 464.952,264.279 464.616,263.943C464.28,263.607 464.076,263.127 464.004,262.503C463.932,261.879 463.896,261.039 463.896,259.983C463.896,258.735 463.944,255.099 464.04,249.075C464.136,243.051 464.184,234.615 464.184,223.767C464.184,221.463 464.16,219.675 464.112,218.403C464.064,217.131 464.04,216.375 464.04,216.135C464.04,215.367 464.1,214.767 464.22,214.335C464.34,213.903 464.568,213.579 464.904,213.363C465.24,213.147 465.672,213.015 466.2,212.967C466.728,212.919 467.4,212.895 468.216,212.895L471.528,212.895Z" style="fill:rgb(119,119,118);fill-rule:nonzero;"/>
                <path d="M481.032,218.223C481.032,216.447 481.2,215.115 481.536,214.227C481.872,213.339 482.832,212.895 484.416,212.895L490.968,212.895C491.832,212.895 492.444,213.003 492.804,213.219C493.164,213.435 493.464,213.951 493.704,214.767C493.944,215.631 494.568,217.947 495.576,221.715C496.584,225.483 498.168,230.703 500.328,237.375L501.768,237.375L501.912,217.215C501.912,215.679 502.056,214.575 502.344,213.903C502.632,213.231 503.4,212.895 504.648,212.895L509.112,212.895C510.456,212.895 511.356,213.075 511.812,213.435C512.268,213.795 512.496,214.599 512.496,215.847C512.496,216.039 512.484,216.255 512.46,216.495C512.436,216.735 512.424,217.047 512.424,217.431L512.424,237.807C512.424,238.863 512.388,239.991 512.316,241.191C512.244,242.391 512.208,243.687 512.208,245.079C512.208,245.559 512.232,246.927 512.28,249.183C512.328,251.439 512.352,254.607 512.352,258.687C512.352,260.655 512.208,262.155 511.92,263.187C511.632,264.219 510.72,264.735 509.184,264.735L503.352,264.735C502.632,264.735 502.056,264.699 501.624,264.627C501.192,264.555 500.832,264.363 500.544,264.051C500.256,263.739 500.004,263.295 499.788,262.719C499.572,262.143 499.32,261.351 499.032,260.343L493.2,240.255L491.76,240.255L491.76,260.343C491.76,261.159 491.724,261.855 491.652,262.431C491.58,263.007 491.436,263.463 491.22,263.799C491.004,264.135 490.656,264.375 490.176,264.519C489.696,264.663 489.072,264.735 488.304,264.735L484.632,264.735C483.72,264.735 483.024,264.651 482.544,264.483C482.064,264.315 481.716,264.051 481.5,263.691C481.284,263.331 481.152,262.839 481.104,262.215C481.056,261.591 481.032,260.799 481.032,259.839L481.032,218.223Z" style="fill:rgb(119,119,118);fill-rule:nonzero;"/>
                <path d="M532.296,250.263C533.112,238.935 533.736,230.247 534.168,224.199C534.6,218.151 535.176,214.647 535.896,213.687C536.328,213.111 537.192,212.823 538.488,212.823C539.592,212.823 540.636,212.835 541.62,212.859C542.604,212.883 543.504,212.895 544.32,212.895L544.968,212.895C545.928,212.895 546.648,212.955 547.128,213.075C547.608,213.195 547.848,213.567 547.848,214.191C547.848,215.439 547.332,218.907 546.3,224.595C545.268,230.283 543.864,238.287 542.088,248.607C541.608,251.439 541.236,253.863 540.972,255.879C540.708,257.895 540.444,259.575 540.18,260.919C539.916,262.263 539.58,263.247 539.172,263.871C538.764,264.495 538.152,264.807 537.336,264.807C537.048,264.807 536.724,264.771 536.364,264.699C536.004,264.627 535.632,264.591 535.248,264.591C534.24,264.591 533.4,264.603 532.728,264.627C532.056,264.651 531.552,264.663 531.216,264.663C530.784,264.663 530.364,264.651 529.956,264.627C529.548,264.603 529.128,264.591 528.696,264.591C528.216,264.591 527.784,264.603 527.4,264.627C527.016,264.651 526.704,264.663 526.464,264.663C525.84,264.663 525.36,264.471 525.024,264.087C524.688,263.703 524.412,263.091 524.196,262.251C523.98,261.411 523.788,260.331 523.62,259.011C523.452,257.691 523.224,256.095 522.936,254.223C522.312,250.335 521.52,246.219 520.56,241.875C519.6,237.531 518.712,232.815 517.896,227.727C517.224,223.647 516.672,220.527 516.24,218.367C515.808,216.207 515.592,214.959 515.592,214.623C515.592,213.855 515.82,213.363 516.276,213.147C516.732,212.931 517.536,212.823 518.688,212.823L525.888,212.823C526.56,212.823 527.088,212.895 527.472,213.039C527.856,213.183 528.12,213.471 528.264,213.903C528.6,214.959 529.032,218.499 529.56,224.523C530.088,230.547 530.688,239.127 531.36,250.263L532.296,250.263Z" style="fill:rgb(119,119,118);fill-rule:nonzero;"/>
                <path d="M550.944,218.223C550.944,218.031 550.932,217.791 550.908,217.503C550.884,217.215 550.872,216.855 550.872,216.423C550.872,215.559 550.98,214.899 551.196,214.443C551.412,213.987 551.736,213.639 552.168,213.399C552.6,213.159 553.152,213.015 553.824,212.967C554.496,212.919 555.312,212.895 556.272,212.895L567.504,212.895C567.648,212.895 567.828,212.907 568.044,212.931C568.26,212.955 568.488,212.967 568.728,212.967C568.824,212.967 568.98,212.955 569.196,212.931C569.412,212.907 569.712,212.895 570.096,212.895C571.584,212.895 572.592,213.159 573.12,213.687C573.648,214.215 573.912,215.199 573.912,216.639C573.912,217.887 573.924,218.871 573.948,219.591C573.972,220.311 573.984,220.791 573.984,221.031C573.984,222.471 573.72,223.419 573.192,223.875C572.664,224.331 571.752,224.559 570.456,224.559C570.072,224.559 569.664,224.547 569.232,224.523C568.8,224.499 568.32,224.487 567.792,224.487L564.48,224.487C563.664,224.487 563.112,224.691 562.824,225.099C562.536,225.507 562.392,226.263 562.392,227.367L562.392,228.303C562.392,229.647 562.512,230.583 562.752,231.111C562.992,231.639 563.712,231.903 564.912,231.903C565.536,231.903 566.256,231.867 567.072,231.795C567.888,231.723 568.8,231.687 569.808,231.687C571.536,231.687 572.592,232.047 572.976,232.767C573.36,233.487 573.552,234.735 573.552,236.511L573.552,238.599C573.552,241.815 572.568,243.423 570.6,243.423C569.928,243.423 569.124,243.375 568.188,243.279C567.252,243.183 566.112,243.135 564.768,243.135C563.712,243.135 563.088,243.327 562.896,243.711C562.704,244.095 562.608,244.719 562.608,245.583L562.536,249.831C562.536,250.935 562.668,251.655 562.932,251.991C563.196,252.327 563.88,252.495 564.984,252.495C566.808,252.495 568.248,252.483 569.304,252.459C570.36,252.435 571.032,252.423 571.32,252.423C572.808,252.423 573.708,252.819 574.02,253.611C574.332,254.403 574.488,255.831 574.488,257.895C574.488,259.191 574.464,260.271 574.416,261.135C574.368,261.999 574.224,262.695 573.984,263.223C573.744,263.751 573.372,264.135 572.868,264.375C572.364,264.615 571.632,264.735 570.672,264.735C569.184,264.735 567.456,264.687 565.488,264.591C563.52,264.495 561.288,264.447 558.792,264.447C558.024,264.447 557.22,264.495 556.38,264.591C555.54,264.687 554.64,264.735 553.68,264.735C552.624,264.735 551.808,264.471 551.232,263.943C550.656,263.415 550.368,262.671 550.368,261.711C550.368,260.559 550.452,259.275 550.62,257.859C550.788,256.443 550.872,254.871 550.872,253.143L550.944,218.223Z" style="fill:rgb(119,119,118);fill-rule:nonzero;"/>
                <path d="M578.592,255.087L578.592,254.799C578.592,253.503 578.832,252.567 579.312,251.991C579.792,251.415 580.632,251.127 581.832,251.127C582.168,251.127 582.516,251.223 582.876,251.415C583.236,251.607 583.656,251.811 584.136,252.027C584.616,252.243 585.18,252.447 585.828,252.639C586.476,252.831 587.28,252.927 588.24,252.927C590.688,252.927 591.912,251.871 591.912,249.759C591.912,248.943 591.72,248.199 591.336,247.527C590.952,246.855 590.424,246.195 589.752,245.547C589.08,244.899 588.312,244.215 587.448,243.495C586.584,242.775 585.672,241.959 584.712,241.047C582.552,238.983 581.004,236.883 580.068,234.747C579.132,232.611 578.664,230.151 578.664,227.367C578.664,217.623 584.064,212.751 594.864,212.751C596.64,212.751 598.032,212.799 599.04,212.895C600.048,212.991 600.792,213.195 601.272,213.507C601.752,213.819 602.04,214.287 602.136,214.911C602.232,215.535 602.28,216.351 602.28,217.359L602.28,222.615C602.28,224.055 602.136,225.003 601.848,225.459C601.56,225.915 600.864,226.143 599.76,226.143C598.848,226.143 597.972,225.987 597.132,225.675C596.292,225.363 595.416,225.207 594.504,225.207C592.296,225.207 591.192,226.167 591.192,228.087C591.192,228.759 591.396,229.419 591.804,230.067C592.212,230.715 592.8,231.411 593.568,232.155C594.336,232.899 595.236,233.739 596.268,234.675C597.3,235.611 598.44,236.703 599.688,237.951C601.56,239.823 602.856,241.683 603.576,243.531C604.296,245.379 604.656,247.527 604.656,249.975C604.656,255.303 603.432,259.239 600.984,261.783C598.536,264.327 594.648,265.599 589.32,265.599C586.968,265.599 585,265.443 583.416,265.131C581.832,264.819 580.704,264.495 580.032,264.159C579.36,263.823 578.964,263.415 578.844,262.935C578.724,262.455 578.664,261.831 578.664,261.063L578.664,260.559L578.592,255.087Z" style="fill:rgb(119,119,118);fill-rule:nonzero;"/>
                <path d="M627.552,256.959C627.552,258.063 627.588,259.011 627.66,259.803C627.732,260.595 627.768,261.231 627.768,261.711C627.768,262.815 627.576,263.595 627.192,264.051C626.808,264.507 626.136,264.735 625.176,264.735C624.984,264.735 624.744,264.723 624.456,264.699C624.168,264.675 623.832,264.663 623.448,264.663C622.824,264.663 622.14,264.699 621.396,264.771C620.652,264.843 619.824,264.879 618.912,264.879C617.712,264.879 616.872,264.651 616.392,264.195C615.912,263.739 615.672,263.007 615.672,261.999C615.672,261.375 615.696,260.751 615.744,260.127C615.792,259.503 615.816,258.855 615.816,258.183L615.816,239.535C615.816,238.959 615.792,238.371 615.744,237.771C615.696,237.171 615.672,236.535 615.672,235.863C615.672,235.383 615.708,234.375 615.78,232.839C615.852,231.303 615.888,229.167 615.888,226.431C615.888,225.615 615.696,225.159 615.312,225.063C614.352,224.823 613.392,224.751 612.432,224.847C611.472,224.943 610.56,224.799 609.696,224.415C609.072,224.175 608.7,223.467 608.58,222.291C608.46,221.115 608.4,219.327 608.4,216.927C608.4,214.383 609.528,213.111 611.784,213.111C614.952,213.111 617.4,213.087 619.128,213.039C620.856,212.991 621.888,212.967 622.224,212.967C623.328,212.967 624.324,213.003 625.212,213.075C626.1,213.147 626.928,213.183 627.696,213.183C628.368,213.183 629.028,213.159 629.676,213.111C630.324,213.063 630.96,213.039 631.584,213.039C632.928,213.039 633.804,213.243 634.212,213.651C634.62,214.059 634.824,215.031 634.824,216.567L634.824,217.431C634.824,219.927 634.716,221.787 634.5,223.011C634.284,224.235 633.552,224.847 632.304,224.847L629.928,224.847C628.968,224.847 628.32,224.979 627.984,225.243C627.648,225.507 627.48,225.951 627.48,226.575L627.48,227.799L627.552,256.959Z" style="fill:rgb(119,119,118);fill-rule:nonzero;"/>
                <path d="M647.064,212.895C647.928,212.895 648.636,212.931 649.188,213.003C649.74,213.075 650.208,213.279 650.592,213.615C650.928,213.951 651.132,214.503 651.204,215.271C651.276,216.039 651.312,217.071 651.312,218.367L651.312,222.687C651.312,229.599 651.276,235.539 651.204,240.507C651.132,245.475 651.096,249.495 651.096,252.567C651.096,253.671 651.12,254.883 651.168,256.203C651.216,257.523 651.24,258.951 651.24,260.487C651.24,261.495 651.168,262.275 651.024,262.827C650.88,263.379 650.628,263.799 650.268,264.087C649.908,264.375 649.428,264.555 648.828,264.627C648.228,264.699 647.496,264.735 646.632,264.735L644.112,264.735C643.008,264.735 642.156,264.687 641.556,264.591C640.956,264.495 640.488,264.279 640.152,263.943C639.816,263.607 639.612,263.127 639.54,262.503C639.468,261.879 639.432,261.039 639.432,259.983C639.432,258.735 639.48,255.099 639.576,249.075C639.672,243.051 639.72,234.615 639.72,223.767C639.72,221.463 639.696,219.675 639.648,218.403C639.6,217.131 639.576,216.375 639.576,216.135C639.576,215.367 639.636,214.767 639.756,214.335C639.876,213.903 640.104,213.579 640.44,213.363C640.776,213.147 641.208,213.015 641.736,212.967C642.264,212.919 642.936,212.895 643.752,212.895L647.064,212.895Z" style="fill:rgb(119,119,118);fill-rule:nonzero;"/>
                <path d="M685.44,259.263C685.44,260.319 685.392,261.159 685.296,261.783C685.2,262.407 684.912,262.911 684.432,263.295C683.568,263.967 682.368,264.519 680.832,264.951C679.296,265.383 677.376,265.599 675.072,265.599C672.048,265.599 669.336,265.011 666.936,263.835C664.536,262.659 662.484,260.979 660.78,258.795C659.076,256.611 657.768,253.947 656.856,250.803C655.944,247.659 655.488,244.143 655.488,240.255C655.488,235.935 655.992,232.083 657,228.699C658.008,225.315 659.412,222.459 661.212,220.131C663.012,217.803 665.184,216.015 667.728,214.767C670.272,213.519 673.104,212.895 676.224,212.895C677.856,212.895 679.224,212.979 680.328,213.147C681.432,213.315 682.32,213.591 682.992,213.975C683.664,214.359 684.144,214.899 684.432,215.595C684.72,216.291 684.864,217.143 684.864,218.151C684.864,220.743 684.744,222.639 684.504,223.839C684.264,225.039 683.496,225.639 682.2,225.639C681.672,225.639 681.024,225.507 680.256,225.243C679.488,224.979 678.552,224.847 677.448,224.847C674.136,224.847 671.688,225.951 670.104,228.159C668.52,230.367 667.728,233.751 667.728,238.311C667.728,243.111 668.148,246.747 668.988,249.219C669.828,251.691 671.256,252.927 673.272,252.927C674.232,252.927 674.844,252.579 675.108,251.883C675.372,251.187 675.504,250.215 675.504,248.967L675.504,244.935C675.504,244.167 674.928,243.567 673.776,243.135C672.96,242.799 672.396,242.319 672.084,241.695C671.772,241.071 671.616,240.207 671.616,239.103C671.616,237.375 671.664,236.007 671.76,234.999C671.856,233.991 672.072,233.223 672.408,232.695C672.744,232.167 673.248,231.831 673.92,231.687C674.592,231.543 675.48,231.471 676.584,231.471L680.76,231.471C682.584,231.471 683.82,231.831 684.468,232.551C685.116,233.271 685.44,234.615 685.44,236.583L685.44,259.263Z" style="fill:rgb(119,119,118);fill-rule:nonzero;"/>
                <path d="M701.784,240.327C701.688,240.711 701.628,241.047 701.604,241.335C701.58,241.623 701.544,241.887 701.496,242.127C701.448,242.367 701.424,242.583 701.424,242.775C701.424,243.207 701.664,243.567 702.144,243.855C702.624,244.143 703.32,244.287 704.232,244.287C705.24,244.287 705.924,244.119 706.284,243.783C706.644,243.447 706.824,242.943 706.824,242.271C706.824,242.031 706.812,241.779 706.788,241.515C706.764,241.251 706.728,240.975 706.68,240.687L704.376,225.639L703.8,225.711L701.784,240.327ZM691.056,247.167C691.248,246.351 691.356,245.463 691.38,244.503C691.404,243.543 691.512,242.559 691.704,241.551C693.048,234.639 694.044,229.311 694.692,225.567C695.34,221.823 695.712,219.615 695.808,218.943C696.192,216.735 696.552,215.175 696.888,214.263C697.224,213.351 697.92,212.895 698.976,212.895L707.832,212.895C708.504,212.895 709.068,212.943 709.524,213.039C709.98,213.135 710.352,213.375 710.64,213.759C711.024,214.287 711.528,216.111 712.152,219.231C712.776,222.351 713.712,226.791 714.96,232.551C715.392,234.567 715.812,237.099 716.22,240.147C716.628,243.195 717.216,246.783 717.984,250.911C718.416,253.263 718.896,255.351 719.424,257.175C719.952,258.999 720.216,260.607 720.216,261.999C720.216,262.815 719.916,263.475 719.316,263.979C718.716,264.483 717.912,264.735 716.904,264.735L710.568,264.735C710.088,264.735 709.632,264.567 709.2,264.231C708.768,263.895 708.504,263.511 708.408,263.079C708.168,262.215 708.048,261.351 708.048,260.487C708.048,259.623 707.952,258.831 707.76,258.111C707.52,257.199 707.184,256.563 706.752,256.203C706.32,255.843 705.624,255.663 704.664,255.663C703.32,255.663 702.3,255.867 701.604,256.275C700.908,256.683 700.56,257.223 700.56,257.895C700.56,258.375 700.572,258.819 700.596,259.227C700.62,259.635 700.632,260.031 700.632,260.415C700.632,261.999 700.416,263.115 699.984,263.763C699.552,264.411 698.64,264.735 697.248,264.735L690.624,264.735C689.616,264.735 688.908,264.567 688.5,264.231C688.092,263.895 687.888,263.367 687.888,262.647C687.888,261.975 687.984,261.219 688.176,260.379C688.368,259.539 688.584,258.615 688.824,257.607L691.056,247.167Z" style="fill:rgb(119,119,118);fill-rule:nonzero;"/>
                <path d="M739.944,256.959C739.944,258.063 739.98,259.011 740.052,259.803C740.124,260.595 740.16,261.231 740.16,261.711C740.16,262.815 739.968,263.595 739.584,264.051C739.2,264.507 738.528,264.735 737.568,264.735C737.376,264.735 737.136,264.723 736.848,264.699C736.56,264.675 736.224,264.663 735.84,264.663C735.216,264.663 734.532,264.699 733.788,264.771C733.044,264.843 732.216,264.879 731.304,264.879C730.104,264.879 729.264,264.651 728.784,264.195C728.304,263.739 728.064,263.007 728.064,261.999C728.064,261.375 728.088,260.751 728.136,260.127C728.184,259.503 728.208,258.855 728.208,258.183L728.208,239.535C728.208,238.959 728.184,238.371 728.136,237.771C728.088,237.171 728.064,236.535 728.064,235.863C728.064,235.383 728.1,234.375 728.172,232.839C728.244,231.303 728.28,229.167 728.28,226.431C728.28,225.615 728.088,225.159 727.704,225.063C726.744,224.823 725.784,224.751 724.824,224.847C723.864,224.943 722.952,224.799 722.088,224.415C721.464,224.175 721.092,223.467 720.972,222.291C720.852,221.115 720.792,219.327 720.792,216.927C720.792,214.383 721.92,213.111 724.176,213.111C727.344,213.111 729.792,213.087 731.52,213.039C733.248,212.991 734.28,212.967 734.616,212.967C735.72,212.967 736.716,213.003 737.604,213.075C738.492,213.147 739.32,213.183 740.088,213.183C740.76,213.183 741.42,213.159 742.068,213.111C742.716,213.063 743.352,213.039 743.976,213.039C745.32,213.039 746.196,213.243 746.604,213.651C747.012,214.059 747.216,215.031 747.216,216.567L747.216,217.431C747.216,219.927 747.108,221.787 746.892,223.011C746.676,224.235 745.944,224.847 744.696,224.847L742.32,224.847C741.36,224.847 740.712,224.979 740.376,225.243C740.04,225.507 739.872,225.951 739.872,226.575L739.872,227.799L739.944,256.959Z" style="fill:rgb(119,119,118);fill-rule:nonzero;"/>
                <path d="M759.456,212.895C760.32,212.895 761.028,212.931 761.58,213.003C762.132,213.075 762.6,213.279 762.984,213.615C763.32,213.951 763.524,214.503 763.596,215.271C763.668,216.039 763.704,217.071 763.704,218.367L763.704,222.687C763.704,229.599 763.668,235.539 763.596,240.507C763.524,245.475 763.488,249.495 763.488,252.567C763.488,253.671 763.512,254.883 763.56,256.203C763.608,257.523 763.632,258.951 763.632,260.487C763.632,261.495 763.56,262.275 763.416,262.827C763.272,263.379 763.02,263.799 762.66,264.087C762.3,264.375 761.82,264.555 761.22,264.627C760.62,264.699 759.888,264.735 759.024,264.735L756.504,264.735C755.4,264.735 754.548,264.687 753.948,264.591C753.348,264.495 752.88,264.279 752.544,263.943C752.208,263.607 752.004,263.127 751.932,262.503C751.86,261.879 751.824,261.039 751.824,259.983C751.824,258.735 751.872,255.099 751.968,249.075C752.064,243.051 752.112,234.615 752.112,223.767C752.112,221.463 752.088,219.675 752.04,218.403C751.992,217.131 751.968,216.375 751.968,216.135C751.968,215.367 752.028,214.767 752.148,214.335C752.268,213.903 752.496,213.579 752.832,213.363C753.168,213.147 753.6,213.015 754.128,212.967C754.656,212.919 755.328,212.895 756.144,212.895L759.456,212.895Z" style="fill:rgb(119,119,118);fill-rule:nonzero;"/>
                <path d="M783.504,250.263C784.32,238.935 784.944,230.247 785.376,224.199C785.808,218.151 786.384,214.647 787.104,213.687C787.536,213.111 788.4,212.823 789.696,212.823C790.8,212.823 791.844,212.835 792.828,212.859C793.812,212.883 794.712,212.895 795.528,212.895L796.176,212.895C797.136,212.895 797.856,212.955 798.336,213.075C798.816,213.195 799.056,213.567 799.056,214.191C799.056,215.439 798.54,218.907 797.508,224.595C796.476,230.283 795.072,238.287 793.296,248.607C792.816,251.439 792.444,253.863 792.18,255.879C791.916,257.895 791.652,259.575 791.388,260.919C791.124,262.263 790.788,263.247 790.38,263.871C789.972,264.495 789.36,264.807 788.544,264.807C788.256,264.807 787.932,264.771 787.572,264.699C787.212,264.627 786.84,264.591 786.456,264.591C785.448,264.591 784.608,264.603 783.936,264.627C783.264,264.651 782.76,264.663 782.424,264.663C781.992,264.663 781.572,264.651 781.164,264.627C780.756,264.603 780.336,264.591 779.904,264.591C779.424,264.591 778.992,264.603 778.608,264.627C778.224,264.651 777.912,264.663 777.672,264.663C777.048,264.663 776.568,264.471 776.232,264.087C775.896,263.703 775.62,263.091 775.404,262.251C775.188,261.411 774.996,260.331 774.828,259.011C774.66,257.691 774.432,256.095 774.144,254.223C773.52,250.335 772.728,246.219 771.768,241.875C770.808,237.531 769.92,232.815 769.104,227.727C768.432,223.647 767.88,220.527 767.448,218.367C767.016,216.207 766.8,214.959 766.8,214.623C766.8,213.855 767.028,213.363 767.484,213.147C767.94,212.931 768.744,212.823 769.896,212.823L777.096,212.823C777.768,212.823 778.296,212.895 778.68,213.039C779.064,213.183 779.328,213.471 779.472,213.903C779.808,214.959 780.24,218.499 780.768,224.523C781.296,230.547 781.896,239.127 782.568,250.263L783.504,250.263Z" style="fill:rgb(119,119,118);fill-rule:nonzero;"/>
                <path d="M802.152,218.223C802.152,218.031 802.14,217.791 802.116,217.503C802.092,217.215 802.08,216.855 802.08,216.423C802.08,215.559 802.188,214.899 802.404,214.443C802.62,213.987 802.944,213.639 803.376,213.399C803.808,213.159 804.36,213.015 805.032,212.967C805.704,212.919 806.52,212.895 807.48,212.895L818.712,212.895C818.856,212.895 819.036,212.907 819.252,212.931C819.468,212.955 819.696,212.967 819.936,212.967C820.032,212.967 820.188,212.955 820.404,212.931C820.62,212.907 820.92,212.895 821.304,212.895C822.792,212.895 823.8,213.159 824.328,213.687C824.856,214.215 825.12,215.199 825.12,216.639C825.12,217.887 825.132,218.871 825.156,219.591C825.18,220.311 825.192,220.791 825.192,221.031C825.192,222.471 824.928,223.419 824.4,223.875C823.872,224.331 822.96,224.559 821.664,224.559C821.28,224.559 820.872,224.547 820.44,224.523C820.008,224.499 819.528,224.487 819,224.487L815.688,224.487C814.872,224.487 814.32,224.691 814.032,225.099C813.744,225.507 813.6,226.263 813.6,227.367L813.6,228.303C813.6,229.647 813.72,230.583 813.96,231.111C814.2,231.639 814.92,231.903 816.12,231.903C816.744,231.903 817.464,231.867 818.28,231.795C819.096,231.723 820.008,231.687 821.016,231.687C822.744,231.687 823.8,232.047 824.184,232.767C824.568,233.487 824.76,234.735 824.76,236.511L824.76,238.599C824.76,241.815 823.776,243.423 821.808,243.423C821.136,243.423 820.332,243.375 819.396,243.279C818.46,243.183 817.32,243.135 815.976,243.135C814.92,243.135 814.296,243.327 814.104,243.711C813.912,244.095 813.816,244.719 813.816,245.583L813.744,249.831C813.744,250.935 813.876,251.655 814.14,251.991C814.404,252.327 815.088,252.495 816.192,252.495C818.016,252.495 819.456,252.483 820.512,252.459C821.568,252.435 822.24,252.423 822.528,252.423C824.016,252.423 824.916,252.819 825.228,253.611C825.54,254.403 825.696,255.831 825.696,257.895C825.696,259.191 825.672,260.271 825.624,261.135C825.576,261.999 825.432,262.695 825.192,263.223C824.952,263.751 824.58,264.135 824.076,264.375C823.572,264.615 822.84,264.735 821.88,264.735C820.392,264.735 818.664,264.687 816.696,264.591C814.728,264.495 812.496,264.447 810,264.447C809.232,264.447 808.428,264.495 807.588,264.591C806.748,264.687 805.848,264.735 804.888,264.735C803.832,264.735 803.016,264.471 802.44,263.943C801.864,263.415 801.576,262.671 801.576,261.711C801.576,260.559 801.66,259.275 801.828,257.859C801.996,256.443 802.08,254.871 802.08,253.143L802.152,218.223Z" style="fill:rgb(119,119,118);fill-rule:nonzero;"/>
                <path d="M858.168,212.895C859.608,212.895 860.568,213.147 861.048,213.651C861.528,214.155 861.768,215.103 861.768,216.495C861.768,216.831 861.744,217.767 861.696,219.303C861.648,220.839 861.624,223.023 861.624,225.855C861.624,227.151 861.636,228.735 861.66,230.607C861.684,232.479 861.696,234.639 861.696,237.087L861.696,251.199C861.696,253.791 861.564,255.987 861.3,257.787C861.036,259.587 860.58,261.039 859.932,262.143C859.284,263.247 858.396,264.039 857.268,264.519C856.14,264.999 854.712,265.239 852.984,265.239C851.112,265.239 849.66,265.191 848.628,265.095C847.596,264.999 846.828,264.771 846.324,264.411C845.82,264.051 845.52,263.535 845.424,262.863C845.328,262.191 845.28,261.279 845.28,260.127L845.28,259.191C845.28,256.983 845.376,255.471 845.568,254.655C845.76,253.839 846.336,253.383 847.296,253.287C847.92,253.191 848.436,253.107 848.844,253.035C849.252,252.963 849.528,252.711 849.672,252.279C849.816,251.847 849.9,251.007 849.924,249.759C849.948,248.511 849.96,246.831 849.96,244.719L849.96,238.887C849.96,234.711 849.948,230.763 849.924,227.043C849.9,223.323 849.888,219.759 849.888,216.351C849.888,214.959 850.08,214.035 850.464,213.579C850.848,213.123 851.736,212.895 853.128,212.895L858.168,212.895Z" style="fill:rgb(119,119,118);fill-rule:nonzero;"/>
                <path d="M879.768,246.231C879.768,248.679 879.972,250.443 880.38,251.523C880.788,252.603 881.64,253.143 882.936,253.143C883.896,253.143 884.64,252.927 885.168,252.495C885.696,252.063 886.08,251.391 886.32,250.479C886.56,249.567 886.704,248.403 886.752,246.987C886.8,245.571 886.824,243.879 886.824,241.911L886.824,229.743C886.824,227.967 886.512,226.599 885.888,225.639C885.264,224.679 884.424,224.199 883.368,224.199C881.928,224.199 880.968,224.835 880.488,226.107C880.008,227.379 879.768,229.311 879.768,231.903L879.768,246.231ZM866.952,239.247C866.952,237.183 866.964,235.215 866.988,233.343C867.012,231.471 867.12,229.707 867.312,228.051C867.504,226.395 867.792,224.835 868.176,223.371C868.56,221.907 869.088,220.527 869.76,219.231C871.008,216.879 872.844,215.079 875.268,213.831C877.692,212.583 880.704,211.959 884.304,211.959C889.728,211.959 893.64,213.591 896.04,216.855C898.44,220.119 899.64,225.255 899.64,232.263L899.64,234.567C899.64,239.799 899.556,244.239 899.388,247.887C899.22,251.535 898.656,254.535 897.696,256.887C896.592,259.623 894.732,261.759 892.116,263.295C889.5,264.831 886.248,265.599 882.36,265.599C879.336,265.599 876.84,265.083 874.872,264.051C872.904,263.019 871.332,261.423 870.156,259.263C868.98,257.103 868.152,254.367 867.672,251.055C867.192,247.743 866.952,243.807 866.952,239.247Z" style="fill:rgb(119,119,118);fill-rule:nonzero;"/>
                <path d="M904.248,218.007C904.248,216.279 904.38,214.995 904.644,214.155C904.908,213.315 905.688,212.895 906.984,212.895L912.888,212.895C914.376,212.895 915.264,213.207 915.552,213.831C915.84,214.455 915.984,215.463 915.984,216.855L915.984,248.463C915.984,251.775 917.256,253.431 919.8,253.431C922.392,253.431 923.688,252.111 923.688,249.471L923.688,216.999C923.688,215.415 923.928,214.335 924.408,213.759C924.888,213.183 925.8,212.895 927.144,212.895L932.76,212.895C933.72,212.895 934.392,213.207 934.776,213.831C935.16,214.455 935.352,215.391 935.352,216.639L935.352,248.031C935.352,254.127 934.032,258.579 931.392,261.387C928.752,264.195 924.528,265.599 918.72,265.599C913.2,265.599 909.264,263.943 906.912,260.631C905.664,258.951 904.908,256.911 904.644,254.511C904.38,252.111 904.248,249.207 904.248,245.799L904.248,218.007Z" style="fill:rgb(119,119,118);fill-rule:nonzero;"/>
                <path d="M952.56,232.623C952.56,233.679 952.572,234.591 952.596,235.359C952.62,236.127 952.74,236.751 952.956,237.231C953.172,237.711 953.52,238.059 954,238.275C954.48,238.491 955.152,238.599 956.016,238.599C957.264,238.599 958.248,238.155 958.968,237.267C959.688,236.379 960.048,235.215 960.048,233.775C960.048,232.047 960.012,230.535 959.94,229.239C959.868,227.943 959.688,226.887 959.4,226.071C959.112,225.255 958.68,224.643 958.104,224.235C957.528,223.827 956.712,223.623 955.656,223.623C953.496,223.623 952.416,224.919 952.416,227.511C952.416,228.039 952.44,228.735 952.488,229.599C952.536,230.463 952.56,231.471 952.56,232.623ZM941.112,217.287C941.112,215.655 941.328,214.491 941.76,213.795C942.192,213.099 943.296,212.751 945.072,212.751C946.176,212.751 947.196,212.775 948.132,212.823C949.068,212.871 949.92,212.895 950.688,212.895C951.792,212.895 953.004,212.859 954.324,212.787C955.644,212.715 957.072,212.679 958.608,212.679C960.96,212.679 962.964,213.003 964.62,213.651C966.276,214.299 967.632,215.331 968.688,216.747C969.744,218.163 970.512,220.011 970.992,222.291C971.472,224.571 971.712,227.319 971.712,230.535C971.712,234.951 971.352,238.455 970.632,241.047C969.912,243.639 968.472,245.487 966.312,246.591L972.864,261.567C973.104,262.143 973.224,262.575 973.224,262.863C973.224,264.207 972.384,264.879 970.704,264.879C970.464,264.879 970.212,264.855 969.948,264.807C969.684,264.759 969.408,264.735 969.12,264.735L963,264.735C962.376,264.735 961.896,264.663 961.56,264.519C961.224,264.375 960.948,264.135 960.732,263.799C960.516,263.463 960.324,263.067 960.156,262.611C959.988,262.155 959.784,261.591 959.544,260.919L954,246.591L952.704,246.591L952.704,261.783C952.704,262.743 952.524,263.475 952.164,263.979C951.804,264.483 951.192,264.735 950.328,264.735L943.92,264.735C942.576,264.735 941.772,264.387 941.508,263.691C941.244,262.995 941.112,261.783 941.112,260.055L941.112,217.287Z" style="fill:rgb(119,119,118);fill-rule:nonzero;"/>
                <path d="M978.408,218.223C978.408,216.447 978.576,215.115 978.912,214.227C979.248,213.339 980.208,212.895 981.792,212.895L988.344,212.895C989.208,212.895 989.82,213.003 990.18,213.219C990.54,213.435 990.84,213.951 991.08,214.767C991.32,215.631 991.944,217.947 992.952,221.715C993.96,225.483 995.544,230.703 997.704,237.375L999.144,237.375L999.288,217.215C999.288,215.679 999.432,214.575 999.72,213.903C1000.01,213.231 1000.78,212.895 1002.02,212.895L1006.49,212.895C1007.83,212.895 1008.73,213.075 1009.19,213.435C1009.64,213.795 1009.87,214.599 1009.87,215.847C1009.87,216.039 1009.86,216.255 1009.84,216.495C1009.81,216.735 1009.8,217.047 1009.8,217.431L1009.8,237.807C1009.8,238.863 1009.76,239.991 1009.69,241.191C1009.62,242.391 1009.58,243.687 1009.58,245.079C1009.58,245.559 1009.61,246.927 1009.66,249.183C1009.7,251.439 1009.73,254.607 1009.73,258.687C1009.73,260.655 1009.58,262.155 1009.3,263.187C1009.01,264.219 1008.1,264.735 1006.56,264.735L1000.73,264.735C1000.01,264.735 999.432,264.699 999,264.627C998.568,264.555 998.208,264.363 997.92,264.051C997.632,263.739 997.38,263.295 997.164,262.719C996.948,262.143 996.696,261.351 996.408,260.343L990.576,240.255L989.136,240.255L989.136,260.343C989.136,261.159 989.1,261.855 989.028,262.431C988.956,263.007 988.812,263.463 988.596,263.799C988.38,264.135 988.032,264.375 987.552,264.519C987.072,264.663 986.448,264.735 985.68,264.735L982.008,264.735C981.096,264.735 980.4,264.651 979.92,264.483C979.44,264.315 979.092,264.051 978.876,263.691C978.66,263.331 978.528,262.839 978.48,262.215C978.432,261.591 978.408,260.799 978.408,259.839L978.408,218.223Z" style="fill:rgb(119,119,118);fill-rule:nonzero;"/>
                <path d="M1026.29,240.327C1026.19,240.711 1026.13,241.047 1026.11,241.335C1026.08,241.623 1026.05,241.887 1026,242.127C1025.95,242.367 1025.93,242.583 1025.93,242.775C1025.93,243.207 1026.17,243.567 1026.65,243.855C1027.13,244.143 1027.82,244.287 1028.74,244.287C1029.74,244.287 1030.43,244.119 1030.79,243.783C1031.15,243.447 1031.33,242.943 1031.33,242.271C1031.33,242.031 1031.32,241.779 1031.29,241.515C1031.27,241.251 1031.23,240.975 1031.18,240.687L1028.88,225.639L1028.3,225.711L1026.29,240.327ZM1015.56,247.167C1015.75,246.351 1015.86,245.463 1015.88,244.503C1015.91,243.543 1016.02,242.559 1016.21,241.551C1017.55,234.639 1018.55,229.311 1019.2,225.567C1019.84,221.823 1020.22,219.615 1020.31,218.943C1020.7,216.735 1021.06,215.175 1021.39,214.263C1021.73,213.351 1022.42,212.895 1023.48,212.895L1032.34,212.895C1033.01,212.895 1033.57,212.943 1034.03,213.039C1034.48,213.135 1034.86,213.375 1035.14,213.759C1035.53,214.287 1036.03,216.111 1036.66,219.231C1037.28,222.351 1038.22,226.791 1039.46,232.551C1039.9,234.567 1040.32,237.099 1040.72,240.147C1041.13,243.195 1041.72,246.783 1042.49,250.911C1042.92,253.263 1043.4,255.351 1043.93,257.175C1044.46,258.999 1044.72,260.607 1044.72,261.999C1044.72,262.815 1044.42,263.475 1043.82,263.979C1043.22,264.483 1042.42,264.735 1041.41,264.735L1035.07,264.735C1034.59,264.735 1034.14,264.567 1033.7,264.231C1033.27,263.895 1033.01,263.511 1032.91,263.079C1032.67,262.215 1032.55,261.351 1032.55,260.487C1032.55,259.623 1032.46,258.831 1032.26,258.111C1032.02,257.199 1031.69,256.563 1031.26,256.203C1030.82,255.843 1030.13,255.663 1029.17,255.663C1027.82,255.663 1026.8,255.867 1026.11,256.275C1025.41,256.683 1025.06,257.223 1025.06,257.895C1025.06,258.375 1025.08,258.819 1025.1,259.227C1025.12,259.635 1025.14,260.031 1025.14,260.415C1025.14,261.999 1024.92,263.115 1024.49,263.763C1024.06,264.411 1023.14,264.735 1021.75,264.735L1015.13,264.735C1014.12,264.735 1013.41,264.567 1013,264.231C1012.6,263.895 1012.39,263.367 1012.39,262.647C1012.39,261.975 1012.49,261.219 1012.68,260.379C1012.87,259.539 1013.09,258.615 1013.33,257.607L1015.56,247.167Z" style="fill:rgb(119,119,118);fill-rule:nonzero;"/>
                <path d="M1051.85,264.735C1051.61,264.735 1051.34,264.759 1051.06,264.807C1050.77,264.855 1050.43,264.879 1050.05,264.879C1049.38,264.879 1048.85,264.747 1048.46,264.483C1048.08,264.219 1047.79,263.811 1047.6,263.259C1047.41,262.707 1047.3,261.999 1047.28,261.135C1047.25,260.271 1047.24,259.263 1047.24,258.111L1047.24,257.391C1047.24,253.839 1047.26,250.119 1047.31,246.231C1047.36,242.343 1047.38,238.215 1047.38,233.847C1047.38,231.495 1047.37,228.987 1047.35,226.323C1047.32,223.659 1047.31,220.815 1047.31,217.791C1047.31,215.967 1047.43,214.695 1047.67,213.975C1047.91,213.255 1048.58,212.895 1049.69,212.895C1049.83,212.895 1050.17,212.907 1050.7,212.931C1051.22,212.955 1051.97,212.967 1052.93,212.967C1053.74,212.967 1054.48,212.943 1055.12,212.895C1055.77,212.847 1056.31,212.823 1056.74,212.823C1057.42,212.823 1057.87,212.919 1058.11,213.111C1058.45,213.351 1058.65,213.771 1058.72,214.371C1058.8,214.971 1058.83,215.727 1058.83,216.639C1058.83,217.023 1058.82,218.007 1058.8,219.591C1058.77,221.175 1058.76,223.407 1058.76,226.287C1058.76,233.583 1058.77,239.247 1058.8,243.279C1058.82,247.311 1058.9,249.735 1059.05,250.551C1059.19,251.415 1059.47,252.015 1059.88,252.351C1060.28,252.687 1060.92,252.855 1061.78,252.855C1062.17,252.855 1062.6,252.819 1063.08,252.747C1063.56,252.675 1064.06,252.639 1064.59,252.639C1065.94,252.639 1066.81,252.975 1067.22,253.647C1067.63,254.319 1067.83,255.447 1067.83,257.031L1067.83,260.847C1067.83,263.487 1066.49,264.807 1063.8,264.807C1063.18,264.807 1062.62,264.795 1062.14,264.771C1061.66,264.747 1061.23,264.735 1060.85,264.735L1051.85,264.735Z" style="fill:rgb(119,119,118);fill-rule:nonzero;"/>
                <path d="M1080.29,212.895C1081.15,212.895 1081.86,212.931 1082.41,213.003C1082.96,213.075 1083.43,213.279 1083.82,213.615C1084.15,213.951 1084.36,214.503 1084.43,215.271C1084.5,216.039 1084.54,217.071 1084.54,218.367L1084.54,222.687C1084.54,229.599 1084.5,235.539 1084.43,240.507C1084.36,245.475 1084.32,249.495 1084.32,252.567C1084.32,253.671 1084.34,254.883 1084.39,256.203C1084.44,257.523 1084.46,258.951 1084.46,260.487C1084.46,261.495 1084.39,262.275 1084.25,262.827C1084.1,263.379 1083.85,263.799 1083.49,264.087C1083.13,264.375 1082.65,264.555 1082.05,264.627C1081.45,264.699 1080.72,264.735 1079.86,264.735L1077.34,264.735C1076.23,264.735 1075.38,264.687 1074.78,264.591C1074.18,264.495 1073.71,264.279 1073.38,263.943C1073.04,263.607 1072.84,263.127 1072.76,262.503C1072.69,261.879 1072.66,261.039 1072.66,259.983C1072.66,258.735 1072.7,255.099 1072.8,249.075C1072.9,243.051 1072.94,234.615 1072.94,223.767C1072.94,221.463 1072.92,219.675 1072.87,218.403C1072.82,217.131 1072.8,216.375 1072.8,216.135C1072.8,215.367 1072.86,214.767 1072.98,214.335C1073.1,213.903 1073.33,213.579 1073.66,213.363C1074,213.147 1074.43,213.015 1074.96,212.967C1075.49,212.919 1076.16,212.895 1076.98,212.895L1080.29,212.895Z" style="fill:rgb(119,119,118);fill-rule:nonzero;"/>
                <path d="M1089.86,255.087L1089.86,254.799C1089.86,253.503 1090.1,252.567 1090.58,251.991C1091.06,251.415 1091.9,251.127 1093.1,251.127C1093.44,251.127 1093.79,251.223 1094.15,251.415C1094.51,251.607 1094.93,251.811 1095.41,252.027C1095.89,252.243 1096.45,252.447 1097.1,252.639C1097.75,252.831 1098.55,252.927 1099.51,252.927C1101.96,252.927 1103.18,251.871 1103.18,249.759C1103.18,248.943 1102.99,248.199 1102.61,247.527C1102.22,246.855 1101.7,246.195 1101.02,245.547C1100.35,244.899 1099.58,244.215 1098.72,243.495C1097.86,242.775 1096.94,241.959 1095.98,241.047C1093.82,238.983 1092.28,236.883 1091.34,234.747C1090.4,232.611 1089.94,230.151 1089.94,227.367C1089.94,217.623 1095.34,212.751 1106.14,212.751C1107.91,212.751 1109.3,212.799 1110.31,212.895C1111.32,212.991 1112.06,213.195 1112.54,213.507C1113.02,213.819 1113.31,214.287 1113.41,214.911C1113.5,215.535 1113.55,216.351 1113.55,217.359L1113.55,222.615C1113.55,224.055 1113.41,225.003 1113.12,225.459C1112.83,225.915 1112.14,226.143 1111.03,226.143C1110.12,226.143 1109.24,225.987 1108.4,225.675C1107.56,225.363 1106.69,225.207 1105.78,225.207C1103.57,225.207 1102.46,226.167 1102.46,228.087C1102.46,228.759 1102.67,229.419 1103.08,230.067C1103.48,230.715 1104.07,231.411 1104.84,232.155C1105.61,232.899 1106.51,233.739 1107.54,234.675C1108.57,235.611 1109.71,236.703 1110.96,237.951C1112.83,239.823 1114.13,241.683 1114.85,243.531C1115.57,245.379 1115.93,247.527 1115.93,249.975C1115.93,255.303 1114.7,259.239 1112.26,261.783C1109.81,264.327 1105.92,265.599 1100.59,265.599C1098.24,265.599 1096.27,265.443 1094.69,265.131C1093.1,264.819 1091.98,264.495 1091.3,264.159C1090.63,263.823 1090.24,263.415 1090.12,262.935C1090,262.455 1089.94,261.831 1089.94,261.063L1089.94,260.559L1089.86,255.087Z" style="fill:rgb(119,119,118);fill-rule:nonzero;"/>
                <path d="M1121.9,226.935C1121.9,226.071 1121.93,225.063 1121.98,223.911C1122.02,222.759 1122.05,221.463 1122.05,220.023C1122.05,219.207 1122.01,218.439 1121.94,217.719C1121.87,216.999 1121.83,216.303 1121.83,215.631C1121.83,214.479 1122.1,213.735 1122.62,213.399C1123.15,213.063 1124.11,212.895 1125.5,212.895L1132.2,212.895C1132.82,212.895 1133.35,212.943 1133.78,213.039C1134.22,213.135 1134.6,213.339 1134.94,213.651C1135.27,213.963 1135.56,214.431 1135.8,215.055C1136.04,215.679 1136.28,216.495 1136.52,217.503L1139.98,232.767L1140.84,232.767L1145.02,215.559C1145.26,214.599 1145.59,213.915 1146.02,213.507C1146.46,213.099 1147.06,212.895 1147.82,212.895L1155.74,212.895C1157.04,212.895 1157.86,213.231 1158.19,213.903C1158.53,214.575 1158.7,215.775 1158.7,217.503C1158.7,219.039 1158.65,221.007 1158.55,223.407C1158.46,225.807 1158.41,228.639 1158.41,231.903C1158.41,234.207 1158.43,237.183 1158.48,240.831C1158.53,244.479 1158.55,248.823 1158.55,253.863C1158.55,255.879 1158.58,257.439 1158.62,258.543C1158.67,259.647 1158.7,260.319 1158.7,260.559C1158.7,262.095 1158.55,263.175 1158.26,263.799C1157.98,264.423 1157.38,264.735 1156.46,264.735L1149.98,264.735C1148.98,264.735 1148.29,264.447 1147.93,263.871C1147.57,263.295 1147.39,262.335 1147.39,260.991L1147.39,247.167C1147.39,244.863 1147.37,242.895 1147.32,241.263C1147.27,239.631 1147.2,238.287 1147.1,237.231L1146.02,237.231C1144.06,246.639 1142.26,251.343 1140.62,251.343C1139.66,251.343 1138.72,250.155 1137.78,247.779C1136.84,245.403 1135.61,241.887 1134.07,237.231L1133.21,237.231L1133.21,258.255C1133.21,258.879 1133.18,259.515 1133.14,260.163C1133.09,260.811 1133.06,261.519 1133.06,262.287C1133.06,262.815 1133.03,263.235 1132.96,263.547C1132.88,263.859 1132.73,264.111 1132.49,264.303C1132.25,264.495 1131.86,264.615 1131.34,264.663C1130.81,264.711 1130.11,264.735 1129.25,264.735L1124.57,264.735C1122.79,264.735 1121.9,263.367 1121.9,260.631L1121.9,258.183L1121.9,226.935Z" style="fill:rgb(119,119,118);fill-rule:nonzero;"/>
            </g>
            <g transform="matrix(1,0,0,1,-371.948,-175.585)">
                <path d="M401.04,256.959C401.04,258.063 401.076,259.011 401.148,259.803C401.22,260.595 401.256,261.231 401.256,261.711C401.256,262.815 401.064,263.595 400.68,264.051C400.296,264.507 399.624,264.735 398.664,264.735C398.472,264.735 398.232,264.723 397.944,264.699C397.656,264.675 397.32,264.663 396.936,264.663C396.312,264.663 395.628,264.699 394.884,264.771C394.14,264.843 393.312,264.879 392.4,264.879C391.2,264.879 390.36,264.651 389.88,264.195C389.4,263.739 389.16,263.007 389.16,261.999C389.16,261.375 389.184,260.751 389.232,260.127C389.28,259.503 389.304,258.855 389.304,258.183L389.304,239.535C389.304,238.959 389.28,238.371 389.232,237.771C389.184,237.171 389.16,236.535 389.16,235.863C389.16,235.383 389.196,234.375 389.268,232.839C389.34,231.303 389.376,229.167 389.376,226.431C389.376,225.615 389.184,225.159 388.8,225.063C387.84,224.823 386.88,224.751 385.92,224.847C384.96,224.943 384.048,224.799 383.184,224.415C382.56,224.175 382.188,223.467 382.068,222.291C381.948,221.115 381.888,219.327 381.888,216.927C381.888,214.383 383.016,213.111 385.272,213.111C388.44,213.111 390.888,213.087 392.616,213.039C394.344,212.991 395.376,212.967 395.712,212.967C396.816,212.967 397.812,213.003 398.7,213.075C399.588,213.147 400.416,213.183 401.184,213.183C401.856,213.183 402.516,213.159 403.164,213.111C403.812,213.063 404.448,213.039 405.072,213.039C406.416,213.039 407.292,213.243 407.7,213.651C408.108,214.059 408.312,215.031 408.312,216.567L408.312,217.431C408.312,219.927 408.204,221.787 407.988,223.011C407.772,224.235 407.04,224.847 405.792,224.847L403.416,224.847C402.456,224.847 401.808,224.979 401.472,225.243C401.136,225.507 400.968,225.951 400.968,226.575L400.968,227.799L401.04,256.959Z" style="fill:rgb(11,11,10);fill-rule:nonzero;"/>
                <path d="M419.616,212.895C421.632,212.895 423.024,213.099 423.792,213.507C424.56,213.915 424.944,214.887 424.944,216.423L424.944,216.927L424.512,228.303C424.512,228.543 424.5,228.783 424.476,229.023C424.452,229.263 424.44,229.503 424.44,229.743C424.44,230.847 424.62,231.699 424.98,232.299C425.34,232.899 426.096,233.199 427.248,233.199C428.352,233.199 429.108,232.803 429.516,232.011C429.924,231.219 430.128,229.983 430.128,228.303C430.128,226.671 430.068,225.375 429.948,224.415C429.828,223.455 429.768,222.807 429.768,222.471C429.768,221.799 429.816,221.163 429.912,220.563C430.008,219.963 430.056,219.327 430.056,218.655C430.056,218.127 430.032,217.623 429.984,217.143C429.936,216.663 429.912,216.231 429.912,215.847C429.912,214.503 430.284,213.675 431.028,213.363C431.772,213.051 432.984,212.895 434.664,212.895L438.048,212.895C439.296,212.895 440.172,213.075 440.676,213.435C441.18,213.795 441.432,214.527 441.432,215.631C441.432,215.871 441.396,216.591 441.324,217.791C441.252,218.991 441.216,220.671 441.216,222.831C441.216,223.503 441.228,224.439 441.252,225.639C441.276,226.839 441.288,228.327 441.288,230.103C441.288,232.263 441.264,235.083 441.216,238.563C441.168,242.043 441.144,246.231 441.144,251.127C441.144,253.719 441.18,255.807 441.252,257.391C441.324,258.975 441.36,260.079 441.36,260.703C441.36,263.391 440.256,264.735 438.048,264.735L432.936,264.735C431.736,264.735 430.884,264.387 430.38,263.691C429.876,262.995 429.624,261.951 429.624,260.559L429.624,254.223C429.624,252.831 429.732,251.559 429.948,250.407C430.164,249.255 430.272,248.199 430.272,247.239C430.272,245.607 429.552,244.791 428.112,244.791C426.576,244.791 425.616,245.163 425.232,245.907C424.848,246.651 424.656,247.767 424.656,249.255L424.656,260.631C424.656,261.495 424.596,262.191 424.476,262.719C424.356,263.247 424.14,263.655 423.828,263.943C423.516,264.231 423.06,264.435 422.46,264.555C421.86,264.675 421.08,264.735 420.12,264.735L417.312,264.735C415.776,264.735 414.672,264.591 414,264.303C413.328,264.015 412.992,263.079 412.992,261.495C412.992,261.159 413.016,260.295 413.064,258.903C413.112,257.511 413.136,255.543 413.136,252.999C413.136,249.159 413.1,245.403 413.028,241.731C412.956,238.059 412.92,234.423 412.92,230.823C412.92,229.095 412.944,227.247 412.992,225.279C413.04,223.311 413.064,221.199 413.064,218.943L413.064,217.143C413.064,216.279 413.1,215.571 413.172,215.019C413.244,214.467 413.424,214.035 413.712,213.723C414,213.411 414.432,213.195 415.008,213.075C415.584,212.955 416.376,212.895 417.384,212.895L419.616,212.895Z" style="fill:rgb(11,11,10);fill-rule:nonzero;"/>
                <path d="M446.688,218.223C446.688,218.031 446.676,217.791 446.652,217.503C446.628,217.215 446.616,216.855 446.616,216.423C446.616,215.559 446.724,214.899 446.94,214.443C447.156,213.987 447.48,213.639 447.912,213.399C448.344,213.159 448.896,213.015 449.568,212.967C450.24,212.919 451.056,212.895 452.016,212.895L463.248,212.895C463.392,212.895 463.572,212.907 463.788,212.931C464.004,212.955 464.232,212.967 464.472,212.967C464.568,212.967 464.724,212.955 464.94,212.931C465.156,212.907 465.456,212.895 465.84,212.895C467.328,212.895 468.336,213.159 468.864,213.687C469.392,214.215 469.656,215.199 469.656,216.639C469.656,217.887 469.668,218.871 469.692,219.591C469.716,220.311 469.728,220.791 469.728,221.031C469.728,222.471 469.464,223.419 468.936,223.875C468.408,224.331 467.496,224.559 466.2,224.559C465.816,224.559 465.408,224.547 464.976,224.523C464.544,224.499 464.064,224.487 463.536,224.487L460.224,224.487C459.408,224.487 458.856,224.691 458.568,225.099C458.28,225.507 458.136,226.263 458.136,227.367L458.136,228.303C458.136,229.647 458.256,230.583 458.496,231.111C458.736,231.639 459.456,231.903 460.656,231.903C461.28,231.903 462,231.867 462.816,231.795C463.632,231.723 464.544,231.687 465.552,231.687C467.28,231.687 468.336,232.047 468.72,232.767C469.104,233.487 469.296,234.735 469.296,236.511L469.296,238.599C469.296,241.815 468.312,243.423 466.344,243.423C465.672,243.423 464.868,243.375 463.932,243.279C462.996,243.183 461.856,243.135 460.512,243.135C459.456,243.135 458.832,243.327 458.64,243.711C458.448,244.095 458.352,244.719 458.352,245.583L458.28,249.831C458.28,250.935 458.412,251.655 458.676,251.991C458.94,252.327 459.624,252.495 460.728,252.495C462.552,252.495 463.992,252.483 465.048,252.459C466.104,252.435 466.776,252.423 467.064,252.423C468.552,252.423 469.452,252.819 469.764,253.611C470.076,254.403 470.232,255.831 470.232,257.895C470.232,259.191 470.208,260.271 470.16,261.135C470.112,261.999 469.968,262.695 469.728,263.223C469.488,263.751 469.116,264.135 468.612,264.375C468.108,264.615 467.376,264.735 466.416,264.735C464.928,264.735 463.2,264.687 461.232,264.591C459.264,264.495 457.032,264.447 454.536,264.447C453.768,264.447 452.964,264.495 452.124,264.591C451.284,264.687 450.384,264.735 449.424,264.735C448.368,264.735 447.552,264.471 446.976,263.943C446.4,263.415 446.112,262.671 446.112,261.711C446.112,260.559 446.196,259.275 446.364,257.859C446.532,256.443 446.616,254.871 446.616,253.143L446.688,218.223Z" style="fill:rgb(11,11,10);fill-rule:nonzero;"/>
                <path d="M507.384,212.895C515.112,212.895 518.976,217.047 518.976,225.351C518.976,228.423 518.628,230.823 517.932,232.551C517.236,234.279 515.976,235.479 514.152,236.151C516.264,237.015 517.716,238.479 518.508,240.543C519.3,242.607 519.696,245.439 519.696,249.039C519.696,254.511 518.544,258.495 516.24,260.991C513.936,263.487 510.312,264.735 505.368,264.735L495.432,264.735C494.712,264.735 494.064,264.699 493.488,264.627C492.912,264.555 492.384,264.375 491.904,264.087C491.472,263.847 491.22,263.127 491.148,261.927C491.076,260.727 491.04,258.999 491.04,256.743C491.04,254.775 491.088,252.915 491.184,251.163C491.28,249.411 491.328,247.719 491.328,246.087C491.328,243.879 491.28,241.707 491.184,239.571C491.088,237.435 491.04,235.359 491.04,233.343C491.04,231.423 491.076,229.347 491.148,227.115C491.22,224.883 491.256,222.447 491.256,219.807C491.256,219.087 491.22,218.367 491.148,217.647C491.076,216.927 491.04,216.207 491.04,215.487C491.04,213.663 492.6,212.751 495.72,212.751C496.392,212.751 496.98,212.775 497.484,212.823C497.988,212.871 498.432,212.895 498.816,212.895L507.384,212.895ZM502.2,251.127C502.2,252.087 502.38,252.819 502.74,253.323C503.1,253.827 503.712,254.079 504.576,254.079C505.824,254.079 506.796,253.587 507.492,252.603C508.188,251.619 508.536,250.191 508.536,248.319C508.536,246.399 508.224,244.995 507.6,244.107C506.976,243.219 505.968,242.775 504.576,242.775C502.992,242.775 502.2,243.567 502.2,245.151L502.2,251.127ZM502.416,230.391C502.416,231.255 502.872,231.687 503.784,231.687C506.664,231.687 508.104,230.151 508.104,227.079C508.104,225.831 507.78,224.835 507.132,224.091C506.484,223.347 505.656,222.975 504.648,222.975C503.16,222.975 502.416,223.503 502.416,224.559L502.416,230.391Z" style="fill:rgb(11,11,10);fill-rule:nonzero;"/>
                <path d="M524.376,218.007C524.376,216.279 524.508,214.995 524.772,214.155C525.036,213.315 525.816,212.895 527.112,212.895L533.016,212.895C534.504,212.895 535.392,213.207 535.68,213.831C535.968,214.455 536.112,215.463 536.112,216.855L536.112,248.463C536.112,251.775 537.384,253.431 539.928,253.431C542.52,253.431 543.816,252.111 543.816,249.471L543.816,216.999C543.816,215.415 544.056,214.335 544.536,213.759C545.016,213.183 545.928,212.895 547.272,212.895L552.888,212.895C553.848,212.895 554.52,213.207 554.904,213.831C555.288,214.455 555.48,215.391 555.48,216.639L555.48,248.031C555.48,254.127 554.16,258.579 551.52,261.387C548.88,264.195 544.656,265.599 538.848,265.599C533.328,265.599 529.392,263.943 527.04,260.631C525.792,258.951 525.036,256.911 524.772,254.511C524.508,252.111 524.376,249.207 524.376,245.799L524.376,218.007Z" style="fill:rgb(11,11,10);fill-rule:nonzero;"/>
                <path d="M572.688,232.623C572.688,233.679 572.7,234.591 572.724,235.359C572.748,236.127 572.868,236.751 573.084,237.231C573.3,237.711 573.648,238.059 574.128,238.275C574.608,238.491 575.28,238.599 576.144,238.599C577.392,238.599 578.376,238.155 579.096,237.267C579.816,236.379 580.176,235.215 580.176,233.775C580.176,232.047 580.14,230.535 580.068,229.239C579.996,227.943 579.816,226.887 579.528,226.071C579.24,225.255 578.808,224.643 578.232,224.235C577.656,223.827 576.84,223.623 575.784,223.623C573.624,223.623 572.544,224.919 572.544,227.511C572.544,228.039 572.568,228.735 572.616,229.599C572.664,230.463 572.688,231.471 572.688,232.623ZM561.24,217.287C561.24,215.655 561.456,214.491 561.888,213.795C562.32,213.099 563.424,212.751 565.2,212.751C566.304,212.751 567.324,212.775 568.26,212.823C569.196,212.871 570.048,212.895 570.816,212.895C571.92,212.895 573.132,212.859 574.452,212.787C575.772,212.715 577.2,212.679 578.736,212.679C581.088,212.679 583.092,213.003 584.748,213.651C586.404,214.299 587.76,215.331 588.816,216.747C589.872,218.163 590.64,220.011 591.12,222.291C591.6,224.571 591.84,227.319 591.84,230.535C591.84,234.951 591.48,238.455 590.76,241.047C590.04,243.639 588.6,245.487 586.44,246.591L592.992,261.567C593.232,262.143 593.352,262.575 593.352,262.863C593.352,264.207 592.512,264.879 590.832,264.879C590.592,264.879 590.34,264.855 590.076,264.807C589.812,264.759 589.536,264.735 589.248,264.735L583.128,264.735C582.504,264.735 582.024,264.663 581.688,264.519C581.352,264.375 581.076,264.135 580.86,263.799C580.644,263.463 580.452,263.067 580.284,262.611C580.116,262.155 579.912,261.591 579.672,260.919L574.128,246.591L572.832,246.591L572.832,261.783C572.832,262.743 572.652,263.475 572.292,263.979C571.932,264.483 571.32,264.735 570.456,264.735L564.048,264.735C562.704,264.735 561.9,264.387 561.636,263.691C561.372,262.995 561.24,261.783 561.24,260.055L561.24,217.287Z" style="fill:rgb(11,11,10);fill-rule:nonzero;"/>
                <path d="M598.68,218.223C598.68,218.031 598.668,217.791 598.644,217.503C598.62,217.215 598.608,216.855 598.608,216.423C598.608,215.559 598.716,214.899 598.932,214.443C599.148,213.987 599.472,213.639 599.904,213.399C600.336,213.159 600.888,213.015 601.56,212.967C602.232,212.919 603.048,212.895 604.008,212.895L615.24,212.895C615.384,212.895 615.564,212.907 615.78,212.931C615.996,212.955 616.224,212.967 616.464,212.967C616.56,212.967 616.716,212.955 616.932,212.931C617.148,212.907 617.448,212.895 617.832,212.895C619.32,212.895 620.328,213.159 620.856,213.687C621.384,214.215 621.648,215.199 621.648,216.639C621.648,217.887 621.66,218.871 621.684,219.591C621.708,220.311 621.72,220.791 621.72,221.031C621.72,222.471 621.456,223.419 620.928,223.875C620.4,224.331 619.488,224.559 618.192,224.559C617.808,224.559 617.4,224.547 616.968,224.523C616.536,224.499 616.056,224.487 615.528,224.487L612.216,224.487C611.4,224.487 610.848,224.691 610.56,225.099C610.272,225.507 610.128,226.263 610.128,227.367L610.128,228.303C610.128,229.647 610.248,230.583 610.488,231.111C610.728,231.639 611.448,231.903 612.648,231.903C613.272,231.903 613.992,231.867 614.808,231.795C615.624,231.723 616.536,231.687 617.544,231.687C619.272,231.687 620.328,232.047 620.712,232.767C621.096,233.487 621.288,234.735 621.288,236.511L621.288,238.599C621.288,241.815 620.304,243.423 618.336,243.423C617.664,243.423 616.86,243.375 615.924,243.279C614.988,243.183 613.848,243.135 612.504,243.135C611.448,243.135 610.824,243.327 610.632,243.711C610.44,244.095 610.344,244.719 610.344,245.583L610.272,249.831C610.272,250.935 610.404,251.655 610.668,251.991C610.932,252.327 611.616,252.495 612.72,252.495C614.544,252.495 615.984,252.483 617.04,252.459C618.096,252.435 618.768,252.423 619.056,252.423C620.544,252.423 621.444,252.819 621.756,253.611C622.068,254.403 622.224,255.831 622.224,257.895C622.224,259.191 622.2,260.271 622.152,261.135C622.104,261.999 621.96,262.695 621.72,263.223C621.48,263.751 621.108,264.135 620.604,264.375C620.1,264.615 619.368,264.735 618.408,264.735C616.92,264.735 615.192,264.687 613.224,264.591C611.256,264.495 609.024,264.447 606.528,264.447C605.76,264.447 604.956,264.495 604.116,264.591C603.276,264.687 602.376,264.735 601.416,264.735C600.36,264.735 599.544,264.471 598.968,263.943C598.392,263.415 598.104,262.671 598.104,261.711C598.104,260.559 598.188,259.275 598.356,257.859C598.524,256.443 598.608,254.871 598.608,253.143L598.68,218.223Z" style="fill:rgb(11,11,10);fill-rule:nonzero;"/>
                <path d="M637.416,240.327C637.32,240.711 637.26,241.047 637.236,241.335C637.212,241.623 637.176,241.887 637.128,242.127C637.08,242.367 637.056,242.583 637.056,242.775C637.056,243.207 637.296,243.567 637.776,243.855C638.256,244.143 638.952,244.287 639.864,244.287C640.872,244.287 641.556,244.119 641.916,243.783C642.276,243.447 642.456,242.943 642.456,242.271C642.456,242.031 642.444,241.779 642.42,241.515C642.396,241.251 642.36,240.975 642.312,240.687L640.008,225.639L639.432,225.711L637.416,240.327ZM626.688,247.167C626.88,246.351 626.988,245.463 627.012,244.503C627.036,243.543 627.144,242.559 627.336,241.551C628.68,234.639 629.676,229.311 630.324,225.567C630.972,221.823 631.344,219.615 631.44,218.943C631.824,216.735 632.184,215.175 632.52,214.263C632.856,213.351 633.552,212.895 634.608,212.895L643.464,212.895C644.136,212.895 644.7,212.943 645.156,213.039C645.612,213.135 645.984,213.375 646.272,213.759C646.656,214.287 647.16,216.111 647.784,219.231C648.408,222.351 649.344,226.791 650.592,232.551C651.024,234.567 651.444,237.099 651.852,240.147C652.26,243.195 652.848,246.783 653.616,250.911C654.048,253.263 654.528,255.351 655.056,257.175C655.584,258.999 655.848,260.607 655.848,261.999C655.848,262.815 655.548,263.475 654.948,263.979C654.348,264.483 653.544,264.735 652.536,264.735L646.2,264.735C645.72,264.735 645.264,264.567 644.832,264.231C644.4,263.895 644.136,263.511 644.04,263.079C643.8,262.215 643.68,261.351 643.68,260.487C643.68,259.623 643.584,258.831 643.392,258.111C643.152,257.199 642.816,256.563 642.384,256.203C641.952,255.843 641.256,255.663 640.296,255.663C638.952,255.663 637.932,255.867 637.236,256.275C636.54,256.683 636.192,257.223 636.192,257.895C636.192,258.375 636.204,258.819 636.228,259.227C636.252,259.635 636.264,260.031 636.264,260.415C636.264,261.999 636.048,263.115 635.616,263.763C635.184,264.411 634.272,264.735 632.88,264.735L626.256,264.735C625.248,264.735 624.54,264.567 624.132,264.231C623.724,263.895 623.52,263.367 623.52,262.647C623.52,261.975 623.616,261.219 623.808,260.379C624,259.539 624.216,258.615 624.456,257.607L626.688,247.167Z" style="fill:rgb(11,11,10);fill-rule:nonzero;"/>
                <path d="M658.224,218.007C658.224,216.279 658.356,214.995 658.62,214.155C658.884,213.315 659.664,212.895 660.96,212.895L666.864,212.895C668.352,212.895 669.24,213.207 669.528,213.831C669.816,214.455 669.96,215.463 669.96,216.855L669.96,248.463C669.96,251.775 671.232,253.431 673.776,253.431C676.368,253.431 677.664,252.111 677.664,249.471L677.664,216.999C677.664,215.415 677.904,214.335 678.384,213.759C678.864,213.183 679.776,212.895 681.12,212.895L686.736,212.895C687.696,212.895 688.368,213.207 688.752,213.831C689.136,214.455 689.328,215.391 689.328,216.639L689.328,248.031C689.328,254.127 688.008,258.579 685.368,261.387C682.728,264.195 678.504,265.599 672.696,265.599C667.176,265.599 663.24,263.943 660.888,260.631C659.64,258.951 658.884,256.911 658.62,254.511C658.356,252.111 658.224,249.207 658.224,245.799L658.224,218.007Z" style="fill:rgb(11,11,10);fill-rule:nonzero;"/>
            </g>
        </g>
    </g>
</svg>
